<svg width="165" height="29" viewBox="0 0 165 29" fill="none" xmlns="http://www.w3.org/2000/svg">
<path d="M124.851 17.038C124.851 17.038 129.818 17.0587 133 17.072M133 17.072C135.427 17.072 139.215 17.072 139.215 17.072C139.215 14.6991 139.008 13.659 137.919 11.872C136.883 10.1722 135.723 9.22 134.139 8.452C132.555 7.66 130.803 7.264 128.883 7.264C126.843 7.264 125.007 7.696 123.375 8.56C121.743 9.4 120.459 10.588 119.523 12.124C118.611 13.636 118.155 15.364 118.155 17.308C118.155 19.252 118.623 20.992 119.559 22.528C120.519 24.04 121.851 25.24 123.555 26.128C125.283 26.992 127.299 27.424 129.603 27.424C131.475 27.424 133.095 27.16 134.463 26.632C135.831 26.08 136.983 25.288 137.919 24.256L134.319 20.512C130.223 24.0226 124.851 21.9618 124.851 16.516C125 11 133 11 133 17.072ZM104.6 27.604C102.608 27.604 100.76 27.292 99.056 26.668C97.352 26.02 95.876 25.108 94.628 23.932C93.404 22.756 92.444 21.376 91.748 19.792C91.052 18.184 90.704 16.42 90.704 14.5C90.704 12.58 91.052 10.828 91.748 9.244C92.444 7.636 93.416 6.244 94.664 5.068C95.912 3.892 97.388 2.992 99.092 2.368C100.82 1.72 102.704 1.396 104.744 1.396C107.12 1.396 109.244 1.792 111.116 2.584C112.988 3.376 114.536 4.516 115.76 6.004L111.224 10.108C110.36 9.172 109.424 8.476 108.416 8.02C107.432 7.54 106.328 7.3 105.104 7.3C104.024 7.3 103.04 7.468 102.152 7.804C101.264 8.14 100.508 8.632 99.884 9.28C99.26 9.904 98.768 10.66 98.408 11.548C98.072 12.412 97.904 13.396 97.904 14.5C97.904 15.556 98.072 16.528 98.408 17.416C98.768 18.304 99.26 19.072 99.884 19.72C100.508 20.344 101.252 20.836 102.116 21.196C103.004 21.532 103.976 21.7 105.032 21.7C106.088 21.7 107.12 21.532 108.128 21.196C108.128 21.196 108.884 16.1223 108.884 13.96H115.184V24.4C113.744 25.432 112.076 26.224 110.18 26.776C108.284 27.328 106.424 27.604 104.6 27.604ZM155.185 7.264C156.697 7.264 158.065 7.576 159.289 8.2C160.513 8.8 161.473 9.736 162.169 11.008C162.889 12.28 163.249 13.924 163.249 15.94V27.1H156.409V17.056C156.409 15.664 156.121 14.656 155.545 14.032C154.993 13.384 154.213 13.06 153.205 13.06C152.485 13.06 151.825 13.228 151.225 13.564C150.625 13.876 150.157 14.368 149.821 15.04C149.485 15.712 149.317 16.588 149.317 17.668C149.317 21.3514 149.317 27.1 149.317 27.1H142.477V7.588H148.993V10.36C150.324 10.36 151 7.264 155.185 7.264Z" stroke="url(#paint0_linear_8_9)" stroke-width="2"/>
<path d="M0 27.1V1.90002H5.868L19.764 18.676H16.992V1.90002H23.976V27.1H18.108L4.212 10.324H6.984V27.1H0Z" fill="url(#paint1_linear_8_9)"/>
<path d="M38.9039 27.424C36.5999 27.424 34.5839 26.992 32.8559 26.128C31.1519 25.24 29.8199 24.04 28.8599 22.528C27.9239 20.992 27.4559 19.252 27.4559 17.308C27.4559 15.364 27.9119 13.636 28.8239 12.124C29.7599 10.588 31.0439 9.40002 32.6759 8.56002C34.3079 7.69603 36.1439 7.26403 38.1839 7.26403C40.1039 7.26403 41.8559 7.66003 43.4399 8.45203C45.0239 9.22003 46.2839 10.36 47.2199 11.872C48.1559 13.384 48.6239 15.22 48.6239 17.38C48.6239 17.62 48.6119 17.896 48.5879 18.208C48.5639 18.52 48.5399 18.808 48.5159 19.072H33.0719V15.472H44.8799L42.2879 16.48C42.3119 15.592 42.1439 14.824 41.7839 14.176C41.4479 13.528 40.9679 13.024 40.3439 12.664C39.7439 12.304 39.0359 12.124 38.2199 12.124C37.4039 12.124 36.6839 12.304 36.0599 12.664C35.4599 13.024 34.9919 13.54 34.6559 14.212C34.3199 14.86 34.1519 15.628 34.1519 16.516V17.56C34.1519 18.52 34.3439 19.348 34.7279 20.044C35.1359 20.74 35.7119 21.28 36.4559 21.664C37.1999 22.024 38.0879 22.204 39.1199 22.204C40.0799 22.204 40.8959 22.072 41.5679 21.808C42.2639 21.52 42.9479 21.088 43.6199 20.512L47.2199 24.256C46.2839 25.288 45.1319 26.08 43.7639 26.632C42.3959 27.16 40.7759 27.424 38.9039 27.424Z" fill="url(#paint2_linear_8_9)"/>
<path d="M48.9822 27.1L57.9462 15.328L57.8022 19.216L49.1982 7.58802H56.9022L61.7262 14.464L58.8462 14.608L63.9582 7.58802H71.1942L62.5902 18.964V15.22L71.4462 27.1H63.6342L58.5942 19.756L61.4742 20.152L56.3982 27.1H48.9822Z" fill="url(#paint3_linear_8_9)"/>
<path d="M82.2513 27.424C79.7553 27.424 77.8113 26.812 76.4193 25.588C75.0273 24.34 74.3313 22.468 74.3313 19.972V3.23202H81.1713V19.9C81.1713 20.596 81.3633 21.148 81.7473 21.556C82.1313 21.94 82.6233 22.132 83.2233 22.132C84.0393 22.132 84.7353 21.928 85.3113 21.52L87.0033 26.308C86.4273 26.692 85.7193 26.968 84.8793 27.136C84.0393 27.328 83.1633 27.424 82.2513 27.424ZM71.4873 13.42V8.30803H85.6353V13.42H71.4873Z" fill="url(#paint4_linear_8_9)"/>
<defs>
<linearGradient id="paint0_linear_8_9" x1="90.704" y1="-0.967025" x2="164.98" y2="21.7226" gradientUnits="userSpaceOnUse">
<stop stop-color="#5C43F6"/>
<stop offset="1" stop-color="#BC61F3"/>
</linearGradient>
<linearGradient id="paint1_linear_8_9" x1="1.12969e-06" y1="-0.401325" x2="85.3184" y2="31.6936" gradientUnits="userSpaceOnUse">
<stop stop-color="#5C43F6"/>
<stop offset="1" stop-color="#BC61F3"/>
</linearGradient>
<linearGradient id="paint2_linear_8_9" x1="1.12969e-06" y1="-0.401325" x2="85.3184" y2="31.6936" gradientUnits="userSpaceOnUse">
<stop stop-color="#5C43F6"/>
<stop offset="1" stop-color="#BC61F3"/>
</linearGradient>
<linearGradient id="paint3_linear_8_9" x1="1.12969e-06" y1="-0.401325" x2="85.3184" y2="31.6936" gradientUnits="userSpaceOnUse">
<stop stop-color="#5C43F6"/>
<stop offset="1" stop-color="#BC61F3"/>
</linearGradient>
<linearGradient id="paint4_linear_8_9" x1="1.12969e-06" y1="-0.401325" x2="85.3184" y2="31.6936" gradientUnits="userSpaceOnUse">
<stop stop-color="#5C43F6"/>
<stop offset="1" stop-color="#BC61F3"/>
</linearGradient>
</defs>
</svg>
